<svg class="svg-icon" style="width: 1em;height: 1em;vertical-align: middle;fill: currentColor;overflow: hidden;" viewBox="0 0 1024 1024" version="1.1" xmlns="http://www.w3.org/2000/svg"><path d="M868.352 681.28c11.424 22.272 27.648 44.16 27.648 70.72a176 176 0 0 1-304.096 120.672L512 928 96 640l92.448-64L96 512l92.448-64L96 384l416-288 416 288-92.448 64L928 512l-92.448 64L928 640l-59.648 41.28z" fill="#FFFFFF" /><path d="M480.32 739.168a243.904 243.904 0 0 0 1.184 39.68L96 512l71.264-49.312 27.936 19.552-42.976 29.76 328.128 227.168z m351.552-199.552L871.776 512l-42.976-29.76 27.936-19.552L928 512l-66.56 46.08a240.096 240.096 0 0 0-29.568-18.464zM367.488 431.488l0.448-32c54.016 0.768 99.2 16 135.008 45.888 17.92 14.944 64.32 11.104 93.632-9.376 31.712-22.176 32.512-53.568-11.296-94.304l21.792-23.424c58.24 54.176 56.864 109.664 7.84 143.936-40.064 28-102.048 33.152-132.48 7.744-29.856-24.96-67.968-37.792-114.944-38.464z" fill="#808FA1" /><path d="M519.456 883.904c5.92 8.96 12.384 17.472 19.392 25.504L512 928 96 640l48.256-33.408 27.968 19.552-20 13.856L512 889.088l7.456-5.184z" fill="#ACB4C0" /><path d="M511.648 632.832a239.008 239.008 0 0 0-14.176 29.12L96 384l416-288 416 288-186.304 128.96a243.072 243.072 0 0 0-58.944 1.92L871.776 384 512 134.912 152.224 384l359.424 248.832z" fill="#5E6E7F" /><path d="M895.296 768a175.296 175.296 0 0 1-44.384 101.632l-45.376-45.344c13.248-15.68 22.272-35.008 25.344-56.288h-42.816l76.192-95.104L945.6 768h-50.304zM736 862.88a111.36 111.36 0 0 0 45.568-17.28l45.856 45.824A175.104 175.104 0 0 1 736 927.264v-64.384z m54.528-197.888A111.488 111.488 0 0 0 736 641.12v-64.416a175.264 175.264 0 0 1 99.936 42.88l-45.408 45.44zM704 641.12a111.52 111.52 0 0 0-56.32 25.344l-45.312-45.376A175.296 175.296 0 0 1 704 576.704v64.416z m-77.568 49.28a111.36 111.36 0 0 0-17.28 45.6h-64.448c3.104-34.24 16-65.664 35.872-91.424l45.856 45.856zM609.152 768c2.912 20.48 11.392 39.2 23.84 54.528l-45.408 45.44A175.264 175.264 0 0 1 544.704 768h64.416z m47.36 76.288c13.888 9.568 30.048 16.096 47.488 18.56v64.448a175.136 175.136 0 0 1-93.216-37.28l45.728-45.76zM592 352a48 48 0 1 1 0-96 48 48 0 0 1 0 96z" fill="#27A2DF" /><path d="M336 400m-48 0a48 48 0 1 0 96 0 48 48 0 1 0-96 0Z" fill="#30AD98" /></svg>